<?xml version="1.0" standalone="no"?>
<!DOCTYPE svg PUBLIC "-//W3C//DTD SVG 20010904//EN"
 "http://www.w3.org/TR/2001/REC-SVG-20010904/DTD/svg10.dtd">
<svg version="1.0" xmlns="http://www.w3.org/2000/svg"
 width="600.000000pt" height="600.000000pt" viewBox="0 0 600.000000 600.000000"
 preserveAspectRatio="xMidYMid meet">

<g transform="translate(0.000000,600.000000) scale(0.100000,-0.100000)"
fill="#000000" stroke="none">
<path d="M1190 3000 l0 -1260 1810 0 1810 0 0 1260 0 1260 -1810 0 -1810 0 0
-1260z m3475 2 l0 -1112 -1665 0 -1665 0 -2 1107 -3 1108 1658 5 c911 3 1662
5 1667 4 7 0 10 -378 10 -1112z"/>
<path d="M2287 3686 c-103 -28 -166 -114 -167 -226 0 -135 95 -230 231 -230
118 0 205 71 229 185 24 117 -47 235 -161 269 -62 19 -69 19 -132 2z"/>
<path d="M3115 2796 c-246 -328 -451 -596 -456 -594 -4 2 -90 96 -191 209
-416 467 -521 584 -530 588 -9 3 -53 -39 -380 -358 l-128 -124 0 -284 0 -283
1570 0 1570 0 0 78 0 77 -102 130 c-56 72 -279 357 -496 635 -217 278 -398
509 -403 514 -4 4 -209 -260 -454 -588z"/>
</g>
</svg>
